# Blender v2.78 (sub 0) OBJ File: ''
# www.blender.org
mtllib cart.mtl
o Cube.001
v -0.866666 0.030105 2.095342
v -0.866667 0.030105 2.245011
v -1.000000 0.030105 2.245011
v -1.000000 0.030105 2.095342
v -0.866667 1.416685 2.095344
v -1.000000 1.416685 2.095342
v -1.000000 1.416685 2.245010
v -0.866668 1.416685 2.245011
v 1.000000 0.030105 2.095344
v 1.000000 1.416685 2.095347
v 0.999999 1.416685 2.245013
v 1.000000 0.030105 2.245011
v -1.000000 0.030106 -2.095346
v -1.000000 1.416686 -2.095344
v -1.000000 1.416686 -2.245011
v -1.000000 0.030106 -2.245012
v -0.866666 1.416686 -2.245011
v -0.866666 0.030106 -2.245012
v 1.000000 0.030106 -2.245011
v 1.000000 1.416686 -2.245010
v 1.000000 1.416686 -2.095340
v 1.000000 0.030106 -2.095343
v -0.866667 1.416686 -2.095343
v -0.866666 0.030106 -2.095345
v 0.866667 0.030105 2.095343
v 0.866667 0.030106 -2.095344
v 0.866667 0.030106 -2.245011
v 0.866667 1.416686 -2.095342
v 0.866666 1.416685 2.095345
v -0.866667 1.416685 2.095344
v -0.866667 1.416686 -2.095343
v 0.866667 1.416686 -2.245010
v 0.866665 1.416685 2.245012
v 0.866667 0.030105 2.245011
v -0.866667 1.416685 2.095344
v -0.866668 1.416685 2.245011
v 0.866667 1.416686 -2.245010
v 0.866667 1.416686 -2.095342
v 0.866667 0.030105 2.245011
v 0.866667 0.030105 2.095343
v -0.866666 1.416686 -2.245011
v -0.866667 1.416686 -2.095343
v 0.866667 0.030106 -2.095344
v -0.866667 0.030105 2.245011
v -0.866666 0.030105 2.095342
v 0.866667 0.030106 -2.245011
v -0.866666 0.030106 -2.095345
v -0.866666 0.030106 -2.245012
v 0.866665 1.416685 2.245012
v 0.866666 1.416685 2.095345
v 0.866667 0.030105 2.245011
v 0.866667 0.030105 2.095343
v -0.866666 1.416686 -2.245011
v -0.866667 1.416686 -2.095343
v 0.866667 0.030106 -2.095344
v -0.866667 0.030105 2.245011
v -0.866666 0.030105 2.095342
v 0.866667 0.030106 -2.245011
v 0.866667 1.416686 -2.245010
v -0.866666 0.030106 -2.095345
v -0.866666 0.030106 -2.245012
v 0.866665 1.416685 2.245012
v -0.866668 1.416685 2.245011
v 0.866667 1.416686 -2.095342
v 0.866666 1.416685 2.095345
v -0.866667 1.416685 2.095344
v -0.866667 1.416686 -2.095343
v -0.866667 1.416685 2.095344
v 0.866666 1.416685 2.095345
v 0.866666 0.253514 2.095345
v -0.866667 0.253514 2.095344
v 0.866667 1.416686 -2.095342
v 0.866667 0.253515 -2.095342
v -0.866667 0.253515 -2.095343
vn 0.0000 -1.0000 0.0000
vn -0.0000 1.0000 0.0000
vn 1.0000 0.0000 0.0000
vn -0.0000 0.0000 1.0000
vn -1.0000 0.0000 0.0000
vn 0.0000 0.0000 -1.0000
vn 0.0000 0.0000 0.0000
usemtl Material.001
s 1
f 2//1 4//1 1//1
f 5//2 7//2 8//2
f 10//3 12//3 9//3
f 8//4 3//4 2//4
f 13//5 15//5 16//5
f 18//6 15//6 17//6
f 7//5 4//5 3//5
f 4//5 14//5 13//5
f 20//3 22//3 19//3
f 21//3 9//3 22//3
f 17//2 14//2 23//2
f 23//2 6//2 5//2
f 18//1 13//1 16//1
f 24//1 4//1 13//1
f 22//1 25//1 26//1
f 26//1 1//1 24//1
f 19//1 26//1 27//1
f 26//1 18//1 27//1
f 21//2 29//2 10//2
f 23//7 30//7 31//7
f 20//2 28//2 21//2
f 17//2 28//2 32//2
f 19//6 32//6 20//6
f 27//6 17//6 32//6
f 11//4 34//4 12//4
f 33//4 2//4 34//4
f 10//2 33//2 11//2
f 5//2 33//2 29//2
f 9//1 34//1 25//1
f 34//1 1//1 25//1
f 8//7 35//7 36//4
f 28//7 37//7 38//4
f 25//7 39//7 40//4
f 23//7 41//7 42//4
f 26//7 40//4 43//4
f 1//7 44//7 45//4
f 32//7 46//4 37//7
f 24//7 45//4 47//4
f 17//7 48//4 41//7
f 27//7 43//4 46//4
f 34//7 49//4 39//7
f 18//7 47//4 48//4
f 2//7 36//4 44//7
f 29//7 38//4 50//4
f 33//7 50//4 49//4
f 5//7 42//4 35//7
f 40//4 51//7 52//7
f 42//4 53//7 54//7
f 43//4 52//7 55//7
f 45//4 56//7 57//7
f 37//7 58//7 59//7
f 47//4 57//7 60//7
f 41//7 61//7 53//7
f 46//4 55//7 58//7
f 39//7 62//7 51//7
f 48//4 60//7 61//7
f 44//7 63//7 56//7
f 50//4 64//7 65//7
f 49//4 65//7 62//7
f 35//7 54//7 66//7
f 36//4 66//7 63//7
f 38//4 59//7 64//7
f 66//7 67//7 68//7
f 69//6 71//6 30//6
f 5//4 69//7 30//4
f 28//4 31//7 72//4
f 29//7 72//7 69//7
f 73//2 71//2 70//2
f 72//5 70//5 69//5
f 31//7 73//4 72//4
f 30//3 74//3 31//3
f 2//1 3//1 4//1
f 5//2 6//2 7//2
f 10//3 11//3 12//3
f 8//4 7//4 3//4
f 13//5 14//5 15//5
f 18//6 16//6 15//6
f 7//5 6//5 4//5
f 4//5 6//5 14//5
f 20//3 21//3 22//3
f 21//3 10//3 9//3
f 17//2 15//2 14//2
f 23//2 14//2 6//2
f 18//1 24//1 13//1
f 24//1 1//1 4//1
f 22//1 9//1 25//1
f 26//1 25//1 1//1
f 19//1 22//1 26//1
f 26//1 24//1 18//1
f 21//2 28//2 29//2
f 23//7 5//7 30//7
f 20//2 32//2 28//2
f 17//2 23//2 28//2
f 19//6 27//6 32//6
f 27//6 18//6 17//6
f 11//4 33//4 34//4
f 33//4 8//4 2//4
f 10//2 29//2 33//2
f 5//2 8//2 33//2
f 9//1 12//1 34//1
f 34//1 2//1 1//1
f 8//7 5//7 35//7
f 28//7 32//7 37//7
f 25//7 34//7 39//7
f 23//7 17//7 41//7
f 26//7 25//7 40//4
f 1//7 2//7 44//7
f 32//7 27//7 46//4
f 24//7 1//7 45//4
f 17//7 18//7 48//4
f 27//7 26//7 43//4
f 34//7 33//7 49//4
f 18//7 24//7 47//4
f 2//7 8//7 36//4
f 29//7 28//7 38//4
f 33//7 29//7 50//4
f 5//7 23//7 42//4
f 40//4 39//7 51//7
f 42//4 41//7 53//7
f 43//4 40//4 52//7
f 45//4 44//7 56//7
f 37//7 46//4 58//7
f 47//4 45//4 57//7
f 41//7 48//4 61//7
f 46//4 43//4 55//7
f 39//7 49//4 62//7
f 48//4 47//4 60//7
f 44//7 36//4 63//7
f 50//4 38//4 64//7
f 49//4 50//4 65//7
f 35//7 42//4 54//7
f 36//4 35//7 66//7
f 38//4 37//7 59//7
f 66//7 54//7 67//7
f 69//6 70//6 71//6
f 5//4 29//7 69//7
f 28//4 23//7 31//7
f 29//7 28//7 72//7
f 73//2 74//2 71//2
f 72//5 73//5 70//5
f 31//7 74//4 73//4
f 30//3 71//3 74//3
