# Blender v2.78 (sub 0) OBJ File: ''
# www.blender.org
mtllib pyrm.mtl
o Plane
v -1.000000 0.000000 1.000000
v 1.000000 0.000000 1.000000
v -1.000000 0.000000 -1.000000
v 1.000000 0.000000 -1.000000
v 1.000000 0.000000 1.000000
v 1.000000 0.000000 -1.000000
v 1.000000 0.000000 1.000000
v -1.000000 0.000000 1.000000
v 1.000000 0.000000 -1.000000
v -1.000000 0.000000 -1.000000
v -1.000000 0.000000 1.000000
v -1.000000 0.000000 -1.000000
v -1.000000 0.000000 -1.000000
v 1.000000 0.000000 -1.000000
v -1.000000 0.000000 1.000000
v 1.000000 0.000000 1.000000
v 1.000000 0.000000 -1.000000
v 1.000000 0.000000 1.000000
v 1.000000 0.000000 -1.000000
v -1.000000 0.000000 -1.000000
v 1.000000 0.000000 1.000000
v -1.000000 0.000000 1.000000
v -1.000000 0.000000 -1.000000
v -1.000000 0.000000 1.000000
v 0.000000 4.000000 0.000000
vn 0.0000 1.0000 0.0000
vn 0.0000 0.0000 1.0000
vn -0.9701 -0.2425 0.0000
vn 0.9701 -0.2425 0.0000
vn 0.0000 -0.2425 0.9701
vn 0.0000 -0.2425 -0.9701
usemtl None
s off
f 1//1 2//1 4//1 3//1
f 4//2 2//2 5//2 6//2
f 6//3 5//3 25//3
f 7//1 9//1 10//1 8//1
f 10//2 12//2 11//2 8//2
f 12//4 25//4 11//4
f 6//5 25//5 12//5 10//5 9//5
f 13//1 15//1 16//1 14//1
f 16//2 18//2 17//2 14//2
f 18//3 25//3 17//3
f 19//1 20//1 22//1 21//1
f 22//2 20//2 23//2 24//2
f 24//4 23//4 25//4
f 18//6 21//6 22//6 24//6 25//6
