# Blender v2.78 (sub 0) OBJ File: 'pyrm.obj'
# www.blender.org
mtllib pyrm.mtl
o Plane
v 1.000000 -1.000000 0.000000
v -1.000000 -1.000000 0.000000
v -1.000000 1.000000 0.000000
v 1.000000 -1.000000 0.000000
v 1.000000 -1.000000 0.000000
v -1.000000 -1.000000 0.000000
v -1.000000 1.000000 0.000000
v 1.000000 1.000000 0.000000
v 0.000000 0.000000 4.000000
v 1.000000 1.000000 0.000000
v -1.000000 -1.000000 0.000000
v -1.000000 -1.000000 0.000000
v 1.000000 -1.000000 0.000000
v 1.000000 -1.000000 0.000000
v 1.000000 1.000000 0.000000
v 1.000000 1.000000 0.000000
v -1.000000 -1.000000 0.000000
v -1.000000 1.000000 0.000000
v -1.000000 1.000000 0.000000
v 1.000000 -1.000000 0.000000
v 1.000000 1.000000 0.000000
v -1.000000 1.000000 0.000000
vn 0.0000 0.0000 -1.0000
vn 0.0000 0.0000 1.0000
vn -0.9701 -0.0000 0.2425
vn -0.0000 0.9701 0.2425
vn -1.0000 0.0001 0.0001
vn 0.9701 0.0000 0.2425
vn 0.0000 -0.9701 0.2425
usemtl None
s off
f 1//1 2//1 3//1
f 4//2 5//2 1//2
f 2//2 6//2 7//2
f 8//2 4//2 1//2
f 2//2 7//2 3//2
f 3//1 8//1 1//1
s 1
f 9//3 7//3 6//3
f 3//4 9//4 8//4
f 9//5 5//2 4//2
f 9//5 1//2 5//2
f 6//2 2//2 9//2
f 7//2 3//2 6//2
f 3//2 7//2 9//2
f 5//2 10//2 4//2
f 4//6 8//6 9//6
f 9//7 2//7 1//7
l 3 19
l 18 7
l 21 8
l 11 12
l 13 14
l 17 2
l 5 20
l 16 21
l 15 16
l 1 13
l 7 22
l 12 6
