# Blender v2.78 (sub 0) OBJ File: 'pyrm.obj'
# www.blender.org
mtllib pyrm.mtl
o Plane
v 1.000000 -0.000000 1.000000
v 1.000000 0.000000 -1.000000
v 1.000000 -0.000000 1.000000
v 1.000000 0.000000 -1.000000
v 0.000000 4.000000 0.000000
v 1.000000 0.000000 -1.000000
v -1.000000 -0.000000 1.000000
v -1.000000 0.000000 -1.000000
v -1.000000 -0.000000 1.000000
v -1.000000 0.000000 -1.000000
v -1.000000 -0.000000 1.000000
v 1.000000 0.000000 -1.000000
v -1.000000 0.000000 -1.000000
v 1.000000 -0.000000 1.000000
v 1.000000 0.000000 -1.000000
v 1.000000 -0.000000 1.000000
v -1.000000 0.000000 -1.000000
v 1.000000 -0.000000 1.000000
v 1.000000 0.000000 -1.000000
v -1.000000 -0.000000 1.000000
v -1.000000 0.000000 -1.000000
v -1.000000 -0.000000 1.000000
vn 0.0000 0.2425 0.9701
vn -0.9701 0.2425 0.0000
vn 0.0000 0.0000 1.0000
vn 0.0000 0.2425 -0.9701
vn 0.9701 0.2425 0.0000
usemtl None
s off
f 5//1 9//1 18//1
f 20//2 5//2 21//2
f 5//3 15//3 12//3
f 5//3 2//3 15//3
f 18//3 3//3 5//3
f 9//3 20//3 18//3
f 20//3 9//3 5//3
f 15//3 13//3 12//3
f 12//4 21//4 5//4
f 5//5 3//5 2//5
l 4 6
l 14 16
l 17 21
l 7 9
l 1 3
l 16 18
l 2 4
l 8 10
l 10 17
l 9 11
l 20 22
l 15 19
